<svg width="304" height="95" viewBox="0 0 304 95" fill="none" xmlns="http://www.w3.org/2000/svg">
<path d="M101.496 58.452V60H75V58.452H82.992C81.096 57.324 79.596 55.788 78.492 53.844C77.412 51.9 76.872 49.704 76.872 47.256C76.872 43.56 78.144 40.464 80.688 37.968C83.256 35.472 86.484 34.224 90.372 34.224C94.284 34.224 97.548 35.664 100.164 38.544L97.464 41.496C96.264 40.344 95.124 39.54 94.044 39.084C92.988 38.628 91.74 38.4 90.3 38.4C87.756 38.4 85.62 39.228 83.892 40.884C82.164 42.516 81.3 44.616 81.3 47.184C81.3 49.728 82.152 51.864 83.856 53.592C85.584 55.296 87.624 56.148 89.976 56.148C91.44 56.148 92.7 55.908 93.756 55.428C94.812 54.924 95.916 54.132 97.068 53.052L99.804 55.86C98.748 57.012 97.74 57.876 96.78 58.452H101.496ZM131.748 58.452V60H101.508V58.452H109.752C107.784 57.324 106.224 55.776 105.072 53.808C103.944 51.84 103.38 49.644 103.38 47.22C103.38 43.524 104.652 40.44 107.196 37.968C109.74 35.472 112.884 34.224 116.628 34.224C120.372 34.224 123.516 35.472 126.06 37.968C128.604 40.44 129.876 43.524 129.876 47.22C129.876 49.62 129.3 51.816 128.148 53.808C127.02 55.8 125.472 57.348 123.504 58.452H131.748ZM122.928 40.776C121.224 39 119.124 38.112 116.628 38.112C114.132 38.112 112.02 39 110.292 40.776C108.588 42.552 107.736 44.712 107.736 47.256C107.736 49.776 108.588 51.924 110.292 53.7C112.02 55.476 114.132 56.364 116.628 56.364C119.124 56.364 121.224 55.476 122.928 53.7C124.656 51.924 125.52 49.776 125.52 47.256C125.52 44.712 124.656 42.552 122.928 40.776ZM167.13 58.452V60H159.39V40.344L150.606 57.804H148.23L139.482 40.344V60L131.742 60V58.452H135.234V34.836H141.858L149.454 50.64L157.05 34.836H163.638V58.452H167.13ZM202.533 58.452V60H194.793V40.344L186.009 57.804H183.633L174.885 40.344V60H167.145V58.452H170.637V34.836H177.261L184.857 50.64L192.453 34.836H199.041V58.452H202.533ZM206.039 58.452V34.836H223.715V38.832H210.287V45.492H222.347V49.272H210.287V56.004H224.147V58.452H227.639V60H202.547V58.452H206.039ZM253.21 58.452V60H245.434L239.422 51.54L233.842 51.54V60H226.102V58.452H229.594V34.836H238.954C242.794 34.836 245.542 35.484 247.198 36.78C248.854 38.076 249.682 40.152 249.682 43.008C249.682 47.16 247.87 49.776 244.246 50.856L249.718 58.452H253.21ZM239.134 47.688C241.534 47.688 243.166 47.316 244.03 46.572C244.894 45.828 245.326 44.64 245.326 43.008C245.326 41.352 244.882 40.224 243.994 39.624C243.106 39 241.522 38.688 239.242 38.688H233.842V47.688L239.134 47.688ZM278.789 58.452V60L252.293 60V58.452H260.285C258.389 57.324 256.889 55.788 255.785 53.844C254.705 51.9 254.165 49.704 254.165 47.256C254.165 43.56 255.437 40.464 257.981 37.968C260.549 35.472 263.777 34.224 267.665 34.224C271.577 34.224 274.841 35.664 277.457 38.544L274.757 41.496C273.557 40.344 272.417 39.54 271.337 39.084C270.281 38.628 269.033 38.4 267.593 38.4C265.049 38.4 262.913 39.228 261.185 40.884C259.457 42.516 258.593 44.616 258.593 47.184C258.593 49.728 259.445 51.864 261.149 53.592C262.877 55.296 264.917 56.148 267.269 56.148C268.733 56.148 269.993 55.908 271.049 55.428C272.105 54.924 273.209 54.132 274.361 53.052L277.097 55.86C276.041 57.012 275.033 57.876 274.073 58.452H278.789ZM282.293 58.452V34.836H299.969V38.832H286.541V45.492H298.601V49.272H286.541V56.004H300.401V58.452H303.893V60H278.801V58.452H282.293Z" fill="#2C2B2B"/>
<path d="M-1.26469e-06 32.9779L32.4999 4.4182L32.4999 61.5375L-1.26469e-06 32.9779Z" fill="url(#paint0_linear_17_896)"/>
<path d="M65 61.3357L32.5001 89.8954L32.5001 32.776L65 61.3357Z" fill="url(#paint1_linear_17_896)"/>
<defs>
<linearGradient id="paint0_linear_17_896" x1="-1.26469e-06" y1="32.9779" x2="43.3332" y2="32.9779" gradientUnits="userSpaceOnUse">
<stop stop-color="#EA591F"/>
<stop offset="1" stop-color="#FBBF24"/>
</linearGradient>
<linearGradient id="paint1_linear_17_896" x1="65" y1="61.3357" x2="21.6668" y2="61.3357" gradientUnits="userSpaceOnUse">
<stop stop-color="#FBBF24"/>
<stop offset="1" stop-color="#EA591F"/>
</linearGradient>
</defs>
</svg>
