<svg width="127" height="172" viewBox="0 0 127 172" fill="none" xmlns="http://www.w3.org/2000/svg">
<path d="M68.9429 63.4527L68.6008 63.839L61.989 57.9833L62.3312 57.597L64.3255 59.3633C64.1016 58.6628 64.0668 57.948 64.2209 57.2189C64.3811 56.4951 64.7316 55.8278 65.2727 55.2169C66.0895 54.2946 67.0911 53.8032 68.2776 53.7426C69.47 53.6873 70.5513 54.0893 71.5215 54.9485C72.4977 55.8131 72.9939 56.8938 73.0102 58.1906L71.6841 58.3305C71.6392 57.7778 71.5325 57.3253 71.3637 56.9728C71.201 56.6256 70.94 56.2929 70.5806 55.9747C69.9458 55.4124 69.2298 55.147 68.4326 55.1783C67.6408 55.2037 66.961 55.5368 66.3935 56.1776C65.8313 56.8124 65.5718 57.5337 65.6151 58.3415C65.6697 59.1486 65.9905 59.812 66.5774 60.3318C66.9427 60.6554 67.3102 60.874 67.6798 60.9876C68.0547 61.0952 68.5052 61.1415 69.0313 61.1266L69.0935 62.432C68.5754 62.4861 68.1329 62.4789 67.7661 62.4105L68.9429 63.4527ZM76.4918 70.1385L76.1497 70.5248L68.6037 63.8416L68.9458 63.4554L71.003 65.2773C70.7612 64.5609 70.714 63.8299 70.8615 63.0842C71.015 62.3438 71.3596 61.6712 71.8953 61.0663C72.7121 60.144 73.7111 59.6555 74.8922 59.6009C76.0787 59.5403 77.139 59.9237 78.0733 60.7512C79.0076 61.5786 79.5163 62.5849 79.5995 63.7699C79.688 64.949 79.3238 65.9997 78.507 66.922C77.9766 67.5209 77.3475 67.9416 76.6198 68.1841C75.8981 68.4318 75.1697 68.476 74.4346 68.3166L76.4918 70.1385ZM78.1974 63.7785C78.1646 62.9587 77.8369 62.273 77.214 61.7214C76.5912 61.1697 75.8679 60.9246 75.0442 60.9859C74.2265 61.0524 73.5365 61.4031 72.9743 62.038C72.4174 62.6668 72.1552 63.3911 72.188 64.2109C72.2267 65.0359 72.5574 65.7243 73.1803 66.2759C73.8031 66.8275 74.5234 67.0701 75.3411 67.0035C76.1648 66.9422 76.8551 66.5971 77.412 65.9683C77.9743 65.3335 78.236 64.6035 78.1974 63.7785ZM85.321 77.9582L84.9789 78.3444L83.0475 76.6339L87.3915 71.729L81.3409 74.1446L80.748 73.6195L82.4237 67.3292L78.0797 72.2341L76.1483 70.5236L76.4904 70.1373L77.3618 70.909L82.581 65.016L84.2339 66.4799L82.6367 72.1023L88.0249 69.8374L89.6688 71.2934L84.4496 77.1864L85.321 77.9582ZM94.1551 85.7822L93.813 86.1685L91.8816 84.4579L96.2257 79.5531L90.175 81.9687L89.5821 81.4435L91.2579 75.1533L86.9139 80.0582L84.9824 78.3476L85.3246 77.9613L86.1959 78.7331L91.4152 72.84L93.0681 74.304L91.4708 79.9264L96.859 77.6615L98.503 79.1174L93.2838 85.0105L94.1551 85.7822ZM95.0301 86.5571L100.249 80.6641L104.66 84.5706L103.777 85.5677L100.426 82.6001L98.9543 84.262L101.964 86.9273L101.128 87.8705L98.1189 85.2052L96.6311 86.8851L100.09 89.9482L99.5487 90.5591L100.42 91.3308L100.078 91.7171L93.8166 86.1717L94.1587 85.7854L95.0301 86.5571ZM106.801 96.9821L106.459 97.3683L104.518 95.6498L104.888 92.2101L103.495 90.9769L101.626 93.0879L99.6944 91.3774L100.036 90.9911L100.908 91.7628L106.127 85.8698L108.463 87.9384C109.421 88.787 109.963 89.556 110.09 90.2454C110.217 90.9348 109.965 91.6358 109.334 92.3485C108.416 93.3846 107.386 93.6369 106.243 93.1055L105.93 96.2103L106.801 96.9821ZM105.667 91.1852C106.266 91.7156 106.756 91.9835 107.136 91.9887C107.516 91.994 107.886 91.7931 108.247 91.3858C108.613 90.9726 108.751 90.593 108.662 90.247C108.579 89.895 108.252 89.4671 107.683 88.9632L106.336 87.7698L104.347 90.0156L105.667 91.1852ZM113.184 102.635L112.842 103.021L106.23 97.1658L106.572 96.7795L108.566 98.5457C108.343 97.8452 108.308 97.1305 108.462 96.4014C108.622 95.6776 108.973 95.0103 109.514 94.3994C110.33 93.4771 111.332 92.9857 112.519 92.9251C113.711 92.8697 114.792 93.2717 115.763 94.131C116.739 94.9956 117.235 96.0762 117.251 97.3731L115.925 97.513C115.88 96.9603 115.773 96.5077 115.605 96.1553C115.442 95.8081 115.181 95.4754 114.822 95.1571C114.187 94.5949 113.471 94.3295 112.674 94.3608C111.882 94.3861 111.202 94.7192 110.635 95.36C110.072 95.9949 109.813 96.7162 109.856 97.5239C109.911 98.3311 110.232 98.9945 110.818 99.5143C111.184 99.8379 111.551 100.056 111.921 100.17C112.296 100.278 112.746 100.324 113.272 100.309L113.335 101.614C112.816 101.669 112.374 101.661 112.007 101.593L113.184 102.635ZM114.058 103.41L119.277 97.5165L123.688 101.423L122.805 102.42L119.454 99.4525L117.982 101.114L120.992 103.78L120.156 104.723L117.147 102.058L115.659 103.738L119.118 106.801L118.577 107.412L119.448 108.183L119.106 108.57L112.845 103.024L113.187 102.638L114.058 103.41Z" fill="#2C2B2B"/>
<path d="M1.29524e-05 60.1418L59.2702 8.05748L59.2702 112.226L1.29524e-05 60.1418Z" fill="url(#paint0_linear_17_895)"/>
<path d="M118.541 111.858L59.2705 163.943L59.2705 59.7738L118.541 111.858Z" fill="url(#paint1_linear_17_895)"/>
<defs>
<linearGradient id="paint0_linear_17_895" x1="1.29524e-05" y1="60.1418" x2="79.027" y2="60.1418" gradientUnits="userSpaceOnUse">
<stop stop-color="#EA591F"/>
<stop offset="1" stop-color="#FBBF24"/>
</linearGradient>
<linearGradient id="paint1_linear_17_895" x1="118.541" y1="111.858" x2="39.5137" y2="111.858" gradientUnits="userSpaceOnUse">
<stop stop-color="#FBBF24"/>
<stop offset="1" stop-color="#EA591F"/>
</linearGradient>
</defs>
</svg>
